<svg id="Capa_1" enable-background="new 0 0 512.003 512.003" height="512" viewBox="0 0 512.003 512.003" width="512" xmlns="http://www.w3.org/2000/svg"><g><path d="m441.972 431.93c94.993-100.31-16.271-345.627-16.271-345.627s-246.547-111.277-346.8-15.153c-1.315 1.259-2.623 2.538-3.917 3.833-99.978 99.964-99.978 262.075 0 362.039 99.964 99.978 262.068 99.971 362.039 0 1.675-1.676 3.337-3.38 4.949-5.092zm-185.969-92.008c-23.165 0-44.152-9.39-59.34-24.579-15.189-15.189-24.579-36.176-24.579-59.34 0-46.344 37.576-83.92 83.92-83.92 23.165 0 44.152 9.39 59.34 24.579 15.189 15.189 24.579 36.176 24.579 59.34-.001 46.344-37.577 83.92-83.92 83.92z" fill="#ffdca9"/><path d="m437.022 437.022c-99.971 99.971-262.075 99.978-362.039 0l121.679-121.679c15.189 15.189 36.176 24.579 59.34 24.579 46.344 0 83.919-37.576 83.92-83.92 0-23.165-9.391-44.152-24.579-59.34l110.358-110.358s111.263 245.317 16.271 345.627c-1.612 1.711-3.274 3.415-4.95 5.091z" fill="#fcbd6a"/><path d="m441.972 431.93c-9.008-5.431-17.161-12.226-24.148-20.202-6.979-7.969-12.77-17.126-17.063-27.216-2.56-6.025-3.762-12.29-3.769-18.448.007-18.335 10.741-35.773 28.659-43.452 38.198-16.348 38.198-70.499 0-86.861l-.877-.368c-23.582-10.105-34.804-37.18-25.258-60.995l.318-.785c7.729-19.297 2.015-38.516-10.451-50.982-12.473-12.473-31.685-18.18-50.982-10.451l-.778.325c-23.815 9.532-50.897-1.683-61.002-25.265l-.375-.884c-16.355-38.191-70.499-38.184-86.861 0l-.375.884c-10.097 23.589-37.187 34.797-61.002 25.265l-.226-.099c-20.775-8.33-37.696-23.002-48.882-41.246 100.254-96.124 259.452-94.851 358.121 3.833 98.303 98.288 99.943 256.637 4.951 356.947z" fill="#ff7b49"/><path d="m441.972 431.93c-9.008-5.431-17.161-12.226-24.148-20.202-6.979-7.969-12.77-17.126-17.063-27.216-2.56-6.025-3.762-12.29-3.769-18.448.007-18.335 10.741-35.773 28.659-43.452 38.198-16.348 38.198-70.499 0-86.861l-.877-.368c-23.582-10.105-34.804-37.18-25.258-60.995l.318-.785c7.729-19.297 2.015-38.516-10.451-50.982l47.638-47.638c98.303 98.288 99.943 256.637 4.951 356.947z" fill="#fd435b"/><path d="m89.997 324.161h30v28.667h-30z" fill="#fdbf00" transform="matrix(.707 -.707 .707 .707 -208.599 173.387)"/><path d="m158.509 392.673h30v28.667h-30z" fill="#ff9f00" transform="matrix(.707 -.707 .707 .707 -236.978 241.899)"/><path d="m79.862 224.83h30v28.666h-30z" fill="#fdbf00" transform="matrix(.707 -.707 .707 .707 -141.328 137.124)"/><path d="m257.841 402.809h30v28.666h-30z" fill="#ff9f00" transform="matrix(.707 -.707 .707 .707 -215.052 315.111)"/></g></svg>