<svg id="Capa_1" enable-background="new 0 0 512 512" height="512" viewBox="0 0 512 512" width="512" xmlns="http://www.w3.org/2000/svg"><g><g><g clip-rule="evenodd" fill-rule="evenodd"><path d="m203.5 383.276c0-17.84 8.898-33.602 22.5-43.086-.272-.654 0-70.861 0-78.138h-29.999c-24.61 0-45-20.118-45-45v-30.001h-64.25l37.499 317.449h101.75v-78.134c-13.601-9.487-22.5-25.25-22.5-43.09z" fill="#ff4a51"/><path d="m387.75 504.5 37.499-317.448h-64.251v30.001c0 24.882-20.39 45-45 45h-30v78.133c13.602 9.487 22.501 25.249 22.501 43.09 0 17.84-8.898 33.602-22.501 43.086.272.654 0 70.861 0 78.138z" fill="#ff4a51"/><path d="m285.999 322.8v17.386c13.602 9.487 22.501 25.249 22.501 43.09 0 17.84-8.898 33.602-22.501 43.086.086.207.118 7.387.121 17.33 22.158-11.07 37.38-33.967 37.38-60.416 0-26.497-15.278-49.429-37.501-60.476zm-176.749-135.748h-22.5l37.5 317.448h22.5zm94.25 196.224c0-17.84 8.898-33.602 22.5-43.086-.086-.207-.118-7.387-.121-17.33-22.157 11.07-37.379 33.967-37.379 60.416 0 26.497 15.277 49.428 37.5 60.476v-17.386c-13.601-9.487-22.5-25.25-22.5-43.09z" fill="#ff1d25"/><path d="m390.998 187.052v-152.259h-30v152.259zm-239.997 0v-152.259h-30v152.259zm60 75v-254.552h-30v251.955c4.713 1.683 9.768 2.597 15 2.597zm59.999 0v-254.552h-30v254.552zm59.999-2.597v-251.955h-30v254.552h14.999c5.233 0 10.288-.914 15.001-2.597z" fill="#ffe477"/><path d="m390.998 187.052v-15h-15v-137.259h-15v152.259zm-254.996-152.259h-15v152.259h30v-15h-15zm59.999-27.293h-15v251.955c4.713 1.683 9.768 2.597 15 2.597h15v-15h-15zm59.999 0h-15v254.552h30v-15h-15zm59.999 0h-15v254.552h14.999c5.232 0 10.287-.914 15-2.597v-16.467c-4.423 2.581-9.551 4.064-15 4.064v-239.552z" fill="#ffd442"/><path d="m425.249 187.052 4.511-38.184c2.003-16.956-14.555-32.533-38.762-45.026v83.21zm-304.247 0v-83.21c-24.207 12.493-40.765 28.07-38.762 45.026l4.511 38.184zm59.999 72.403v-177.133c-10.124 2.456-20.27 5.417-30 8.815v95.915 30.001c0 19.094 12.125 36.02 30 42.402zm59.999 2.597v-187.876c-9.017 0-19.22.814-30 2.347v185.529h15zm59.999 0v-185.529c-10.779-1.533-20.983-2.347-30-2.347v187.876h14.999zm60-75v-95.915c-9.729-3.398-19.875-6.359-30-8.815v177.133c17.86-6.376 30-23.328 30-42.403z" fill="#fcc062"/><path d="m285.999 504.5v-78.134c-17.906 12.489-42.094 12.489-59.999 0v78.134zm0-164.314v-78.133c-19.999 0-39.999 0-59.999 0v78.134c17.906-12.491 42.094-12.49 59.999-.001z" fill="#ffe477"/><path d="m285.999 504.5v-78.134c-17.906 12.489-42.094 12.489-59.999 0v78.134h15v-55.439c9.863 2.228 20.137 2.228 29.999 0v55.439zm0-164.314v-78.133h-15v55.439c-9.863-2.228-20.137-2.228-29.999 0v-55.439h-15v78.134c17.906-12.491 42.094-12.49 59.999-.001z" fill="#ffd442"/><ellipse cx="256" cy="383.276" fill="#ffe477" rx="52.5" ry="52.5" transform="matrix(.988 -.158 .158 .988 -57.207 45.137)"/><path d="m425.249 187.052 1.772-15h-36.023v15zm-304.247-68.731v-14.479c-24.207 12.493-40.765 28.07-38.762 45.026l4.511 38.184h34.251v-15h-13.523l-2.739-23.184c-1.288-10.904 5.1-21.237 16.262-30.547zm29.999 53.731h15v45c0 11.019 6.06 20.719 15 25.935v16.467c-17.875-6.382-30-23.308-30-42.403v-30.001zm60 75h30v15h-30zm59.999 0h30v15h-30zm59.999-4.064c8.94-5.216 15-14.917 15-25.936v-45h15v15 30.001c0 19.074-12.139 36.027-30 42.403zm-149.998-153.976v-6.689c-10.124 2.456-20.27 5.417-30 8.815v8.823c7.877-3.465 19.489-7.545 30-10.949zm59.999-12.997v-1.839c-9.017 0-19.22.814-30 2.347v3.885c8.025-1.636 19.597-3.227 30-4.393z" fill="#fbb03b"/><path d="m267.25 331.988c-32.555-7.108-63.75 17.589-63.75 51.288s31.194 58.396 63.75 51.287c-54.597-11.921-54.597-90.653 0-102.575z" fill="#ffd442"/></g><g><path d="m189.311 482h-15v-15h15zm-30 0h-15v-15h15zm214.006-47.118-14.896-1.76 14.107-119.427 14.896 1.76zm15.868-134.322-14.896-1.76 1.768-14.97 14.896 1.76z" fill="#fff"/></g></g><g><path d="m398.499 99.346v-72.053h-45v53.493c-4.909-1.531-9.915-2.964-15-4.291v-76.495h-45v68.017c-5.227-.577-10.237-.968-15-1.172v-66.845h-45v66.844c-4.763.204-9.773.595-15 1.172v-68.016h-45v76.496c-5.082 1.326-10.088 2.76-15 4.291v-53.494h-45v72.052c-34.526 18.965-40.202 37.769-38.71 50.402l4.511 38.184 7.978 67.54 14.896-1.76-6.989-59.16h48.313v22.501c0 28.948 23.551 52.5 52.5 52.5h22.5v66.998c-11.546 9.271-19.686 22.724-21.892 38.185l14.85 2.119c3.138-21.994 22.287-38.579 44.542-38.579s41.404 16.585 44.542 38.579l14.85-2.119c-2.206-15.461-10.346-28.914-21.892-38.185v-66.998h22.5c14.021 0 27.225-5.508 37.176-15.509l-10.633-10.58c-7.116 7.151-16.542 11.089-26.543 11.089h-119.997c-20.677 0-37.5-16.822-37.5-37.5v-37.501h-65.084l-3.729-31.564c-1.443-12.212 11.479-23.436 23.814-31.239v47.803h15v-122.258h15v122.259h15v-68.018c4.891-1.609 9.899-3.118 15-4.515v139.956h15v-216.975h15v224.553h15v-156.435c5.255-.616 10.268-1.037 15-1.256v157.69h15v-224.552h15v224.553h15v-157.691c4.732.219 9.744.64 15 1.256v156.435h15v-224.553h15v216.957h15v-139.937c5.103 1.397 10.11 2.906 15 4.515v68.018h15v-122.26h15v122.259h15v-47.802c12.335 7.803 25.256 19.027 23.813 31.238l-3.729 31.564h-65.085v37.501c0 5.679-1.254 11.144-3.728 16.24l13.495 6.549c3.472-7.155 5.232-14.822 5.232-22.789v-22.501h48.313l-35.729 302.448h-33.689v15h47.021l38.282-324.068 4.511-38.184c1.492-12.632-4.185-31.436-38.71-50.402zm-119.999 228.371c-6.991-2.858-14.595-4.441-22.5-4.441s-15.508 1.583-22.5 4.441v-58.164h45z"/><path d="m293.5 430.002c11.546-9.271 19.686-22.724 21.892-38.185l-14.85-2.119c-3.138 21.993-22.287 38.578-44.542 38.578s-41.404-16.585-44.542-38.578l-14.85 2.119c2.206 15.461 10.346 28.914 21.892 38.185v66.998h-87.584l-26.979-228.392-14.896 1.76 28.543 241.632h214.811v-15h-38.895zm-60 8.833c6.991 2.858 14.595 4.441 22.5 4.441s15.508-1.583 22.5-4.441v58.165h-45z"/><path d="m233.5 375.776h15v15h-15z"/><path d="m263.5 375.776h15v15h-15z"/></g></g></svg>