<svg height="512" viewBox="0 0 512 512" width="512" xmlns="http://www.w3.org/2000/svg"><g id="flat"><path d="m128 56h64v64h-64z" fill="#754c24"/><path d="m128 56h64v24h-64z" fill="#5c3b1c"/><path d="m320 56h64v64h-64z" fill="#754c24"/><path d="m320 56h64v24h-64z" fill="#5c3b1c"/><path d="m216 168v288a32 32 0 0 0 32 32h208a32 32 0 0 0 32-32v-288a64 64 0 0 0 -64-64h-144a64 64 0 0 0 -64 64z" fill="#ffcd01"/><path d="m312 456v-288a64.027 64.027 0 0 0 -48-61.984 64.027 64.027 0 0 0 -48 61.984v288a32 32 0 0 0 32 32h32a32 32 0 0 0 32-32z" fill="#ffba01"/><path d="m304 56v16h96v-16a32 32 0 0 0 -32-32h-32a32 32 0 0 0 -32 32z" fill="#ffcd01"/><circle cx="440" cy="440" fill="#754c24" r="16"/><path d="m296 136h112v32h-112z" fill="#ff9f03"/><path d="m296 136v32h16a63.678 63.678 0 0 0 -8.578-32z" fill="#fd8d01"/><path d="m376 248 40-48 24 16-56 56z" fill="#009245"/><path d="m384 272 56-56 16 24-48 40z" fill="#39b54a"/><path d="m424 293.623a32.888 32.888 0 0 0 -9.633-23.256l-28.734-28.734a32.888 32.888 0 0 0 -23.256-9.633 32.89 32.89 0 0 0 -28.009 15.651l-118.368 192.349 192.349-118.368a32.89 32.89 0 0 0 15.651-28.009z" fill="#ff9f03"/><path d="m312 284-96 156 96-59.077z" fill="#fd8d01"/><path d="m248 424h80v32h-80z" fill="#ff9f03"/><g fill="#fd8d01"><path d="m248 424h64v32h-64z"/><rect height="69.283" rx="8" transform="matrix(.707 -.707 .707 .707 -87.328 333.465)" width="16" x="350.863" y="237.505"/><rect height="56.569" rx="8" transform="matrix(.707 -.707 .707 .707 -124.833 346.627)" width="16" x="348" y="295.716"/><rect height="45.255" rx="8" transform="matrix(.707 -.707 .707 .707 -142.891 311.029)" width="16" x="296" y="305.373"/></g><path d="m312 345.991v-21.305l-12.686-12.686a8 8 0 0 0 -11.314 11.314l20.686 20.686a7.961 7.961 0 0 0 3.314 1.991z" fill="#fd6b01"/><path d="m24 168v288a32 32 0 0 0 32 32h208a32 32 0 0 0 32-32v-288a64 64 0 0 0 -64-64h-144a64 64 0 0 0 -64 64z" fill="#25e552"/><path d="m24 168v288a32 32 0 0 0 32 32h208a32 32 0 0 0 32-32v-288a64 64 0 0 0 -64-64h-144a64 64 0 0 0 -64 64z" fill="#25e552"/><path d="m168 264h-16v-4.223a144.272 144.272 0 0 0 -15.155-64.2l14.31-7.156a160.361 160.361 0 0 1 16.845 71.356z" fill="#754c24"/><circle cx="248" cy="440" fill="#754c24" r="16"/><path d="m56 424h80v32h-80z" fill="#39b54a"/><path d="m56 424h32v32h-32z" fill="#009245"/><path d="m104 136h112v32h-112z" fill="#e6e6e6"/><path d="m212 216a52 52 0 0 0 -52 52 52 52 0 0 0 -52-52 52 52 0 0 0 -52 52v2.765a157.492 157.492 0 0 0 46.128 111.363 33.706 33.706 0 0 0 51.878-5.137l.333-.5a33.7 33.7 0 0 0 5.661-18.691 33.7 33.7 0 0 0 5.661 18.7l.333.5a33.706 33.706 0 0 0 51.878 5.137 157.492 157.492 0 0 0 46.128-111.372v-2.765a52 52 0 0 0 -52-52z" fill="#e6e6e6"/><path d="m144 288-8.717 2.179a30.739 30.739 0 0 0 -23.283 29.821 16 16 0 0 0 16 16 16 16 0 0 0 16-16z" fill="#754c24"/><path d="m176 288 8.717 2.179a30.739 30.739 0 0 1 23.283 29.821 16 16 0 0 1 -16 16 16 16 0 0 1 -16-16z" fill="#754c24"/><path d="m112 56v16h96v-16a32 32 0 0 0 -32-32h-32a32 32 0 0 0 -32 32z" fill="#25e552"/></g></svg>