<svg id="Layer_3" enable-background="new 0 0 64 64" height="512" viewBox="0 0 64 64" width="512" xmlns="http://www.w3.org/2000/svg"><g><path d="m38.858 52c-.564-1.595-.858-3.285-.858-5v-26c0-3.246 1.053-6.404 3-9v-4h18c-1.947 2.596-3 5.754-3 9v26c0 3.246 1.053 6.404 3 9z" fill="#c16b3f"/><path d="m37.999 26.418c.927.375 1.94.582 3.001.582 4.418 0 8-3.582 8-8s-3.582-8-8-8v1c-1.947 2.596-3 5.754-3 9z" fill="#db9b7c"/><g><path d="m42 24.999h-2c-1.654 0-3-1.346-3-3v-1h2v1c0 .552.448 1 1 1h2c.552 0 1-.448 1-1v-1c0-.551-.448-1-1-1h-2c-1.654 0-3-1.346-3-3v-1c0-1.654 1.346-3 3-3h2c1.654 0 3 1.346 3 3v1h-2v-1c0-.552-.448-1-1-1h-2c-.552 0-1 .448-1 1v1c0 .551.448 1 1 1h2c1.654 0 3 1.346 3 3v1c0 1.654-1.346 3-3 3z" fill="#e7e4dd"/></g><path d="m36 44.465c0-.303.09-.599.258-.852l3.187-4.781c.347-.52.93-.832 1.555-.832.625 0 1.208.312 1.555.832l3.187 4.781c.168.252.258.549.258.852 0 .848-.687 1.535-1.535 1.535h-6.93c-.848 0-1.535-.687-1.535-1.535z" fill="#f2c351"/><path d="m5 56c1.947-2.596 3-5.754 3-9v-26c0-3.246-1.053-6.404-3-9h36c-1.947 2.596-3 5.754-3 9v26c0 3.246 1.053 6.404 3 9z" fill="#e39854"/><path d="m41 58 3-2 3 2 3-2 3 2 3-2 3 2v-6h-20.142c.503 1.409 1.233 2.788 2.142 4z" fill="#cbc3b6"/><path d="m59 8h-18v-2l-3 2-3-2-3 2-3-2-3 2-3-2v-4l3 2 3-2 3 2 3-2 3 2 3-2 3 2 3-2 3 2 3-2 3 2 3-2z" fill="#cbc3b6"/><circle cx="23" cy="23" fill="#c16b3f" r="8"/><path d="m18 48.465c0-.303.09-.599.258-.852l3.187-4.781c.347-.52.93-.832 1.555-.832.625 0 1.208.312 1.555.832l3.187 4.781c.168.252.258.549.258.852 0 .848-.687 1.535-1.535 1.535h-6.93c-.848 0-1.535-.687-1.535-1.535z" fill="#f2c351"/><path d="m5 12v-6l3 2 3-2 3 2 3-2 3 2 3-2 3 2 3-2 3 2 3-2 3 2 3-2v6" fill="#d5cec2"/><path d="m5 56v6l3-2 3 2 3-2 3 2 3-2 3 2 3-2 3 2 3-2 3 2 3-2 3 2v-6" fill="#d5cec2"/><path d="m11 51.465c0-.303.09-.599.258-.852l3.187-4.781c.347-.52.93-.832 1.555-.832.625 0 1.208.312 1.555.832l3.187 4.781c.168.252.258.549.258.852 0 .848-.687 1.535-1.535 1.535h-6.93c-.848 0-1.535-.687-1.535-1.535z" fill="#f7d881"/><path d="m25 51.465c0-.303.09-.599.258-.852l3.187-4.781c.347-.52.93-.832 1.555-.832.625 0 1.208.312 1.555.832l3.187 4.781c.168.252.258.549.258.852 0 .848-.687 1.535-1.535 1.535h-6.93c-.848 0-1.535-.687-1.535-1.535z" fill="#f7d881"/><path d="m11.427 35.565c.212-.212.483-.356.777-.415l5.582-1.114c.607-.121 1.234.068 1.672.505.438.437.628 1.063.506 1.668l-1.116 5.57c-.059.294-.204.564-.416.776-.594.593-1.557.593-2.151 0l-4.854-4.844c-.594-.592-.594-1.553 0-2.146z" fill="#f9d18b"/><path d="m34.573 35.565c-.212-.212-.483-.356-.777-.415l-5.582-1.114c-.607-.121-1.234.068-1.672.505-.438.437-.628 1.063-.506 1.668l1.116 5.57c.059.294.204.564.416.776.594.593 1.557.593 2.151 0l4.854-4.844c.594-.592.594-1.553 0-2.146z" fill="#f5b953"/><path d="m43 47.465c0-.303.09-.599.258-.852l3.187-4.781c.347-.52.93-.832 1.555-.832.625 0 1.208.312 1.555.832l3.187 4.781c.168.252.258.549.258.852 0 .848-.687 1.535-1.535 1.535h-6.93c-.848 0-1.535-.687-1.535-1.535z" fill="#f7d881"/><path d="m52.573 31.565c-.212-.212-.483-.356-.777-.415l-5.582-1.114c-.607-.121-1.234.068-1.672.505-.438.437-.628 1.063-.506 1.668l1.116 5.57c.059.294.204.564.416.776.594.593 1.557.593 2.151 0l4.854-4.844c.594-.592.594-1.553 0-2.146z" fill="#f5b953"/><g><path d="m24 28.999h-2c-1.654 0-3-1.346-3-3v-1h2v1c0 .552.448 1 1 1h2c.552 0 1-.448 1-1v-1c0-.551-.448-1-1-1h-2c-1.654 0-3-1.346-3-3v-1c0-1.654 1.346-3 3-3h2c1.654 0 3 1.346 3 3v1h-2v-1c0-.552-.448-1-1-1h-2c-.552 0-1 .448-1 1v1c0 .551.448 1 1 1h2c1.654 0 3 1.346 3 3v1c0 1.654-1.346 3-3 3z" fill="#e7e4dd"/></g><g fill="#e7e4dd"><path d="m33.673 6.885-1.673 1.115-3-2-3 2-3-2-3 2-3-2-3 2-3-2-3 2-3-2v6h27.797c.481-1.635.783-3.347.876-5.115z"/><path d="m5 56v6l3-2 3 2 3-2 3 2 3-2 3 2 3-2 3 2 .104-.07c1.319-1.775 2.361-3.767 3.026-5.93z"/></g></g></svg>